<?xml version="1.0" encoding="UTF-8" standalone="no"?>
<!-- Created with Inkscape (http://www.inkscape.org/) -->

<svg
   width="4.2832165mm"
   height="3.9040415mm"
   viewBox="0 0 4.2832165 3.9040415"
   version="1.1"
   id="svg1"
   xml:space="preserve"
   xmlns="http://www.w3.org/2000/svg"
   xmlns:svg="http://www.w3.org/2000/svg"><defs
     id="defs1"><linearGradient
       id="swatch8"><stop
         style="stop-color:#c2d7d8;stop-opacity:1;"
         offset="0"
         id="stop8" /></linearGradient><linearGradient
       id="swatch6"><stop
         style="stop-color:#000000;stop-opacity:1;"
         offset="0"
         id="stop6" /></linearGradient></defs><g
     id="layer1"
     transform="translate(-106.04173,-93.135916)"><g
       style="opacity:1;fill:#ffffff;fill-opacity:1;fill-rule:nonzero;stroke:none;stroke-width:0.999001;stroke-dasharray:none;stroke-opacity:1"
       id="g1"
       transform="matrix(0.28552377,0,0,0.28304969,105.89916,92.794212)"><path
         d="m 8.707,1.5 a 1,1 0 0 0 -1.414,0 L 0.646,8.146 A 0.5006316,0.5006316 0 0 0 1.354,8.854 L 2,8.207 V 13.5 A 1.5,1.5 0 0 0 3.5,15 h 9 A 1.5,1.5 0 0 0 14,13.5 V 8.207 l 0.646,0.647 A 0.5006316,0.5006316 0 0 0 15.354,8.146 L 13,5.793 V 2.5 A 0.5,0.5 0 0 0 12.5,2 h -1 A 0.5,0.5 0 0 0 11,2.5 V 3.793 Z M 13,7.207 V 13.5 A 0.5,0.5 0 0 1 12.5,14 h -9 A 0.5,0.5 0 0 1 3,13.5 V 7.207 l 5,-5 z"
         id="path1"
         style="fill:#ffffff;fill-opacity:1;fill-rule:nonzero;stroke:none;stroke-width:0.999001;stroke-dasharray:none;stroke-opacity:1" /></g></g></svg>
